# 3ds Max Wavefront OBJ Exporter v0.97b - (c)2007 guruware
# 创建的文件:12.07.2021 17:42:04

#
# object pCube1
#

v  0.2000 0.3653 0.1250
v  -0.2000 0.3653 0.1250
v  -0.2000 -0.4000 0.1250
v  0.2000 -0.4000 0.1250
v  0.2000 0.4000 -0.1250
v  -0.2000 0.4000 -0.1250
v  -0.2000 0.4000 0.1250
v  0.2000 0.4000 0.1250
v  0.2000 -0.4000 -0.1250
v  -0.2000 -0.4000 -0.1250
v  -0.2000 0.3653 -0.1250
v  0.2000 0.3653 -0.1250
v  0.2000 0.4000 0.1561
v  -0.2000 0.4000 0.1561
v  -0.2000 0.3653 0.1561
v  0.2000 0.3653 0.1561
# 16 vertices

vn 0.0000 0.0000 1.0000
vn 0.0000 1.0000 -0.0000
vn 0.0000 0.0000 -1.0000
vn 1.0000 0.0000 -0.0000
vn -1.0000 0.0000 -0.0000
vn 0.0000 -1.0000 -0.0000
# 6 vertex normals

vt 0.9884 0.9945 0.0000
vt 0.4718 0.9944 0.0000
vt 0.4720 0.0059 0.0000
vt 0.9886 0.0060 0.0000
vt 0.4600 0.9878 0.0000
vt 0.0136 0.9878 0.0000
vt 0.0136 0.7088 0.0000
vt 0.4600 0.7088 0.0000
vt 0.4459 0.6518 0.0000
vt 0.2720 0.6519 0.0000
vt 0.2719 0.3192 0.0000
vt 0.4458 0.3192 0.0000
vt 0.2394 0.6275 0.0000
vt 0.0384 0.6275 0.0000
vt 0.0384 0.0124 0.0000
vt 0.2393 0.0123 0.0000
vt -0.9616 0.6275 0.0000
vt -0.7606 0.6275 0.0000
vt -0.7607 0.0123 0.0000
vt -0.9616 0.0124 0.0000
vt 0.4285 0.0065 0.0000
vt 0.4285 0.2949 0.0000
vt 0.4035 0.2949 0.0000
vt 0.4035 0.0065 0.0000
vt -0.9616 0.6554 0.0000
vt -0.7606 0.6554 0.0000
vt 0.2719 0.3041 0.0000
vt 0.4458 0.3041 0.0000
vt 0.2394 0.6554 0.0000
vt 0.0384 0.6554 0.0000
vt 0.3974 0.0046 0.0000
vt 0.3974 0.2931 0.0000
vt 0.3750 0.2931 0.0000
vt 0.3750 0.0046 0.0000
vt 0.0135 0.6554 0.0000
vt 0.0135 0.6275 0.0000
vt 0.0136 0.6741 0.0000
vt 0.4600 0.6741 0.0000
vt -0.9865 0.6275 0.0000
vt -0.9865 0.6554 0.0000
# 40 texture coords

g pCube1
s off
f 1/1/1 2/2/1 3/3/1 4/4/1 
f 5/5/2 6/6/2 7/7/2 8/8/2 
s 1
f 9/9/3 10/10/3 11/11/3 12/12/3 
s 2
f 12/13/4 1/14/4 4/15/4 9/16/4 
s 3
f 2/17/5 11/18/5 10/19/5 3/20/5 
s off
f 13/21/1 14/22/1 15/23/1 16/24/1 
s 3
f 7/25/5 6/26/5 11/18/5 2/17/5 
s 1
f 12/12/3 11/11/3 6/27/3 5/28/3 
s 2
f 5/29/4 8/30/4 1/14/4 12/13/4 
s off
f 16/31/6 15/32/6 2/33/6 1/34/6 
f 13/35/4 16/36/4 1/14/4 8/30/4 
f 14/37/2 13/38/2 8/8/2 7/7/2 
f 15/39/5 14/40/5 7/25/5 2/17/5 
# 13 polygons

